<?xml version="1.0" standalone="no"?>
<!DOCTYPE svg PUBLIC "-//W3C//DTD SVG 20010904//EN"
 "http://www.w3.org/TR/2001/REC-SVG-20010904/DTD/svg10.dtd">
<svg version="1.0" xmlns="http://www.w3.org/2000/svg"
 width="400.000000pt" height="400.000000pt" viewBox="0 0 400.000000 400.000000"
 preserveAspectRatio="xMidYMid meet">

<g transform="translate(0.000000,400.000000) scale(0.100000,-0.100000)"
fill="#000000" stroke="none">
<path d="M1089 3980 c-254 -53 -471 -171 -660 -358 -212 -212 -346 -484 -378
-772 -24 -222 -46 -612 -46 -840 0 -247 25 -676 50 -870 52 -396 278 -738 631
-954 77 -47 222 -110 305 -132 178 -47 166 -47 958 -51 809 -4 869 -2 1049 48
510 141 890 580 952 1099 70 593 54 1587 -30 1892 -133 481 -533 849 -1025
943 -68 13 -206 15 -900 14 -749 -1 -828 -2 -906 -19z m583 -1447 c5 -332 6
-364 27 -437 80 -286 292 -500 581 -587 70 -21 98 -22 453 -26 207 -3 377 -7
377 -10 0 -21 -130 -191 -197 -258 -228 -228 -512 -345 -838 -345 -274 0 -460
62 -720 240 -124 85 -286 291 -358 456 -96 221 -107 307 -107 872 l0 452 389
0 389 0 4 -357z m1438 -23 l0 -380 -380 0 -380 0 0 380 0 380 380 0 380 0 0
-380z"/>
</g>
</svg>
